<svg width="506" height="385" viewBox="0 0 506 385" fill="none" xmlns="http://www.w3.org/2000/svg">
<path fill-rule="evenodd" clip-rule="evenodd" d="M433.699 263.139C424.622 262.183 416.489 268.767 415.534 277.844L407.04 358.525C406.084 367.602 412.668 375.734 421.745 376.69L477.026 382.51C486.103 383.466 494.236 376.882 495.191 367.805L503.685 287.124C504.641 278.047 498.057 269.915 488.981 268.959L433.699 263.139ZM436.844 290.662L435.712 301.42L450.321 302.958L445.161 351.964L457.512 353.264L462.672 304.258L477.281 305.796L478.413 295.038L436.844 290.662Z" fill="#5570FF"/>
<path fill-rule="evenodd" clip-rule="evenodd" d="M321.947 255.873C312.84 256.481 305.95 264.356 306.557 273.463L311.957 354.41C312.564 363.516 320.439 370.406 329.546 369.799L385.01 366.099C394.116 365.492 401.006 357.617 400.399 348.51L394.999 267.563C394.392 258.456 386.517 251.566 377.41 252.174L321.947 255.873ZM336.356 336.454C338.437 338.233 341.145 339.703 344.48 340.864C347.855 341.977 351.364 342.412 355.006 342.169C359.048 341.9 362.459 340.869 365.239 339.078C368.061 337.239 370.18 334.889 371.595 332.029C373.007 329.124 373.598 325.939 373.367 322.475C373.189 319.81 372.614 317.551 371.643 315.697C370.669 313.799 369.47 312.206 368.045 310.918C366.621 309.63 365.169 308.589 363.688 307.796C362.204 306.958 360.844 306.29 359.606 305.793L352.242 302.737C351.001 302.195 349.916 301.643 348.986 301.081C348.056 300.518 347.321 299.853 346.779 299.087C346.281 298.317 345.998 297.421 345.93 296.399C345.821 294.756 346.306 293.341 347.387 292.153C348.512 290.963 350.163 290.295 352.339 290.15C354.782 289.987 357.272 290.535 359.81 291.793C362.389 293.004 364.644 294.705 366.575 296.896L368.773 283.7C366.955 282.528 364.609 281.48 361.737 280.556C358.906 279.585 355.714 279.218 352.161 279.455C348.386 279.707 345.146 280.636 342.443 282.244C339.74 283.852 337.695 285.974 336.31 288.609C334.968 291.242 334.41 294.246 334.635 297.621C334.84 300.686 335.589 303.224 336.883 305.234C338.222 307.242 339.871 308.894 341.831 310.191C343.789 311.443 345.823 312.512 347.934 313.397L355.232 316.457C356.01 316.762 356.911 317.215 357.932 317.816C358.998 318.414 359.921 319.2 360.699 320.174C361.523 321.146 361.986 322.409 362.09 323.963C362.217 325.873 361.615 327.541 360.282 328.969C358.994 330.393 357.129 331.187 354.686 331.35C351.71 331.548 348.742 330.854 345.781 329.267C342.816 327.635 340.467 325.517 338.732 322.911L336.356 336.454Z" fill="#28A667"/>
<path d="M162.169 325.759C159.361 327.629 156.156 328.648 152.554 328.817C148.952 328.986 145.643 328.273 142.627 326.676C139.653 325.034 137.252 322.762 135.422 319.863C133.592 316.963 132.593 313.712 132.424 310.11C132.253 306.465 132.943 303.134 134.495 300.12C136.045 297.061 138.224 294.597 141.032 292.728C143.884 290.811 147.11 289.768 150.712 289.599C154.314 289.43 157.602 290.166 160.575 291.81C163.547 293.408 165.947 295.657 167.777 298.557C169.649 301.41 170.67 304.66 170.842 308.306C171.011 311.908 170.298 315.239 168.704 318.3C167.154 321.358 164.976 323.845 162.169 325.759Z" fill="#FE6530"/>
<path fill-rule="evenodd" clip-rule="evenodd" d="M121.723 253.761C112.606 254.19 105.562 261.927 105.99 271.044L109.796 352.082C110.224 361.199 117.962 368.242 127.079 367.814L182.605 365.207C191.722 364.778 198.765 357.041 198.337 347.924L194.531 266.886C194.103 257.769 186.365 250.726 177.248 251.154L121.723 253.761ZM140.647 338.601C144.546 340.023 148.697 340.63 153.099 340.423C157.501 340.216 161.576 339.223 165.325 337.442C169.072 335.617 172.324 333.214 175.08 330.233C177.881 327.249 180.015 323.829 181.483 319.972C182.951 316.116 183.583 312.031 183.381 307.717C183.178 303.404 182.166 299.396 180.343 295.694C178.52 291.992 176.075 288.787 173.006 286.079C169.983 283.368 166.521 281.303 162.622 279.882C158.72 278.417 154.569 277.787 150.167 277.994C145.765 278.2 141.69 279.217 137.943 281.041C134.195 282.821 130.92 285.203 128.119 288.187C125.362 291.169 123.25 294.587 121.783 298.444C120.315 302.301 119.682 306.386 119.885 310.699C120.087 315.013 121.1 319.02 122.923 322.722C124.745 326.424 127.169 329.631 130.192 332.341C133.261 335.048 136.746 337.136 140.647 338.601Z" fill="#FE6530"/>
<path d="M259.392 338.818C256.387 340.353 253.086 340.998 249.489 340.753C245.891 340.508 242.686 339.42 239.873 337.488C237.107 335.515 234.982 332.983 233.497 329.893C232.012 326.802 231.392 323.459 231.637 319.861C231.885 316.22 232.953 312.99 234.84 310.174C236.731 307.313 239.178 305.115 242.182 303.58C245.235 302.003 248.559 301.338 252.157 301.583C255.754 301.828 258.936 302.936 261.701 304.91C264.47 306.838 266.597 309.348 268.082 312.438C269.614 315.488 270.256 318.833 270.008 322.475C269.763 326.072 268.674 329.3 266.738 332.157C264.848 335.017 262.399 337.238 259.392 338.818Z" fill="#FCB630"/>
<path fill-rule="evenodd" clip-rule="evenodd" d="M227.469 262.657C218.363 262.036 210.479 268.915 209.859 278.021L204.345 358.96C203.725 368.066 210.603 375.951 219.709 376.571L275.168 380.349C284.274 380.969 292.158 374.091 292.778 364.985L298.292 284.045C298.912 274.939 292.034 267.055 282.928 266.435L227.469 262.657ZM236.538 349.107C240.249 350.966 244.302 352.045 248.699 352.345C253.096 352.644 257.258 352.125 261.187 350.786C265.117 349.403 268.624 347.388 271.704 344.743C274.829 342.1 277.341 338.947 279.241 335.284C281.142 331.622 282.239 327.636 282.532 323.328C282.826 319.02 282.28 314.923 280.893 311.036C279.507 307.149 277.445 303.685 274.708 300.642C272.015 297.603 268.813 295.154 265.103 293.296C261.395 291.393 257.343 290.291 252.947 289.991C248.55 289.692 244.386 290.234 240.454 291.617C236.526 292.955 233 294.945 229.875 297.588C226.795 300.234 224.304 303.388 222.404 307.051C220.504 310.714 219.407 314.7 219.113 319.007C218.82 323.316 219.366 327.413 220.752 331.3C222.138 335.187 224.178 338.65 226.871 341.689C229.608 344.73 232.831 347.204 236.538 349.107Z" fill="#FCB630"/>
<path d="M46.507 337.934L41.3135 338.327L39.7717 317.954L44.9652 317.561C47.6724 317.356 49.8654 317.725 51.5443 318.669C53.2671 319.61 54.5441 320.853 55.3752 322.397C55.6464 322.888 55.8793 323.381 56.0741 323.873C56.4734 324.883 56.7112 325.896 56.788 326.911C56.8629 327.9 56.7848 328.91 56.5553 329.941C56.4247 330.528 56.2438 331.123 56.0142 331.724C55.4214 333.331 54.3444 334.73 52.7828 335.919C51.2618 337.061 49.1696 337.732 46.507 337.934Z" fill="#84DA53"/>
<path d="M44.3303 309.171L39.1368 309.564L38.26 297.979L43.7198 297.566C45.6728 297.418 47.3073 297.785 48.624 298.668C49.3944 299.165 49.9703 299.835 50.3518 300.677C50.6449 301.322 50.8235 302.068 50.8877 302.916C51.0288 304.781 50.4925 306.249 49.279 307.323C48.0663 308.397 46.4164 309.013 44.3303 309.171Z" fill="#84DA53"/>
<path fill-rule="evenodd" clip-rule="evenodd" d="M16.4787 263.669C7.37768 264.358 0.55834 272.294 1.2471 281.395L7.36925 362.29C8.05801 371.391 15.994 378.211 25.0951 377.522L80.5235 373.327C89.6245 372.638 96.4439 364.702 95.7551 355.601L89.633 274.706C88.9442 265.605 81.0082 258.785 71.9071 259.474L16.4787 263.669ZM26.0098 290.067L30.5447 349.99L48.5215 348.629C53.4041 348.26 57.4343 346.951 60.6121 344.701C63.7898 342.451 66.1033 339.688 67.5515 336.408C68.9998 333.129 69.5939 329.781 69.3352 326.363C69.0699 322.856 67.9871 319.747 66.0853 317.033C64.1801 314.276 61.7861 312.135 58.9026 310.613C59.6405 309.787 60.254 308.892 60.7445 307.927C60.9936 307.438 61.2113 306.931 61.3967 306.406C61.9455 304.802 62.154 303.135 62.023 301.404C61.8752 299.451 61.2101 297.447 60.0278 295.395C58.842 293.296 56.9939 291.584 54.4826 290.256C52.0126 288.881 48.7806 288.344 44.7853 288.646L26.0098 290.067Z" fill="#84DA53"/>
<path fill-rule="evenodd" clip-rule="evenodd" d="M97.9242 0C85.4783 0 75.3889 10.0894 75.3889 22.5353V208.811C75.3889 221.257 85.4783 231.346 97.9241 231.346H401.709C414.155 231.346 424.244 221.257 424.244 208.811V22.5352C424.244 10.0894 414.155 0 401.709 0H97.9242ZM161.072 33.0495V199.521H195.383V33.0495H161.072ZM221.86 33.0495V63.0143H262.443V199.521H296.753V63.0143H337.336V33.0495H221.86Z" fill="#7130FC"/>
</svg>
